/* XPM */
static char *_cdcbcef29fc4fb3b3fc3ab597dbef1eUm56MPDrNOgEojvP[] = {
/* columns rows colors chars-per-pixel */
"64 64 6 1 ",
"  c #121114",
". c #151317",
"X c #1E1B21",
"o c #312C36",
"O c #3C3947",
"+ c #4E4B54",
/* pixels */
"++O+++O++O+++OOo++O+++O++O+++OOo++O+++O++O+++OOo++O+++O++O+++OOo",
"+OoOO+oOooOoOoo +OoOO+oOooOoOoo +OoOO+oOooOoOoo +OoOO+oOooOoOoo ",
"Oo+OOoooXoO+OOo.Oo+OOoooXoO+OOo.Oo+OOoooXoO+OOo.Oo+OOoooXoO+OOo.",
"++oOOooOOooOoOX.++oOOooOOooOoOX.++oOOooOOooOoOX.++oOOooOOooOoOX.",
"++OoXoXoOoOoXoXo++OoXoXoOoOoXoXo++OoXoXoOoOoXoXo++OoXoXoOoOoXoXo",
"+o++OOOoXoO+OOoo+o++OOOoXoO+OOoo+o++OOOoXoO+OOoo+o++OOOoXoO+OOoo",
"OOoOOooOOooOoOXoOOoOOooOOooOoOXoOOoOOooOOooOoOXoOOoOOooOOooOoOXo",
"O+o+OOoX+OOXoXX.O+o+OOoX+OOXoXX.O+o+OOoX+OOXoXX.O+o+OOoX+OOXoXX.",
"++O+oOXXOOoXoXO ++O+oOXXOOoXoXO ++O+oOXXOOoXoXO ++O+oOXXOOoXoXO ",
"OOoOo+OOoXXoooO.OOoOo+OOoXXoooO.OOoOo+OOoXXoooO.OOoOo+OOoXXoooO.",
"+O+OOOXoX.OOXOOX+O+OOOXoX.OOXOOX+O+OOOXoX.OOXOOX+O+OOOXoX.OOXOOX",
"+oOoOooOoXOoX.oX+oOoOooOoXOoX.oX+oOoOooOoXOoX.oX+oOoOooOoXOoX.oX",
"+OooooOoOXoX.oo.+OooooOoOXoX.oo.+OooooOoOXoX.oo.+OooooOoOXoX.oo.",
"+oOO.XooOooO.OO.+oOO.XooOooO.OO.+oOO.XooOooO.OO.+oOO.XooOooO.OO.",
"OoOoXoXXX..ooOoXOoOoXoXXX..ooOoXOoOoXoXXX..ooOoXOoOoXoXXX..ooOoX",
"oXXXXX.XXXXXXX.XoXXXXX.XXXXXXX.XoXXXXX.XXXXXXX.XoXXXXX.XXXXXXX.X",
"++O+++O++O+++OOo++O+++O++O+++OOo++O+++O++O+++OOo++O+++O++O+++OOo",
"+OoOO+oOooOoOoo +OoOO+oOooOoOoo +OoOO+oOooOoOoo +OoOO+oOooOoOoo ",
"Oo+OOoooXoO+OOo.Oo+OOoooXoO+OOo.Oo+OOoooXoO+OOo.Oo+OOoooXoO+OOo.",
"++oOOooOOooOoOX.++oOOooOOooOoOX.++oOOooOOooOoOX.++oOOooOOooOoOX.",
"++OoXoXoOoOoXoXo++OoXoXoOoOoXoXo++OoXoXoOoOoXoXo++OoXoXoOoOoXoXo",
"+o++OOOoXoO+OOoo+o++OOOoXoO+OOoo+o++OOOoXoO+OOoo+o++OOOoXoO+OOoo",
"OOoOOooOOooOoOXoOOoOOooOOooOoOXoOOoOOooOOooOoOXoOOoOOooOOooOoOXo",
"O+o+OOoX+OOXoXX.O+o+OOoX+OOXoXX.O+o+OOoX+OOXoXX.O+o+OOoX+OOXoXX.",
"++O+oOXXOOoXoXO ++O+oOXXOOoXoXO ++O+oOXXOOoXoXO ++O+oOXXOOoXoXO ",
"OOoOo+OOoXXoooO.OOoOo+OOoXXoooO.OOoOo+OOoXXoooO.OOoOo+OOoXXoooO.",
"+O+OOOXoX.OOXOOX+O+OOOXoX.OOXOOX+O+OOOXoX.OOXOOX+O+OOOXoX.OOXOOX",
"+oOoOooOoXOoX.oX+oOoOooOoXOoX.oX+oOoOooOoXOoX.oX+oOoOooOoXOoX.oX",
"+OooooOoOXoX.oo.+OooooOoOXoX.oo.+OooooOoOXoX.oo.+OooooOoOXoX.oo.",
"+oOO.XooOooO.OO.+oOO.XooOooO.OO.+oOO.XooOooO.OO.+oOO.XooOooO.OO.",
"OoOoXoXXX..ooOoXOoOoXoXXX..ooOoXOoOoXoXXX..ooOoXOoOoXoXXX..ooOoX",
"oXXXXX.XXXXXXX.XoXXXXX.XXXXXXX.XoXXXXX.XXXXXXX.XoXXXXX.XXXXXXX.X",
"++O+++O++O+++OOo++O+++O++O+++OOo++O+++O++O+++OOo++O+++O++O+++OOo",
"+OoOO+oOooOoOoo +OoOO+oOooOoOoo +OoOO+oOooOoOoo +OoOO+oOooOoOoo ",
"Oo+OOoooXoO+OOo.Oo+OOoooXoO+OOo.Oo+OOoooXoO+OOo.Oo+OOoooXoO+OOo.",
"++oOOooOOooOoOX.++oOOooOOooOoOX.++oOOooOOooOoOX.++oOOooOOooOoOX.",
"++OoXoXoOoOoXoXo++OoXoXoOoOoXoXo++OoXoXoOoOoXoXo++OoXoXoOoOoXoXo",
"+o++OOOoXoO+OOoo+o++OOOoXoO+OOoo+o++OOOoXoO+OOoo+o++OOOoXoO+OOoo",
"OOoOOooOOooOoOXoOOoOOooOOooOoOXoOOoOOooOOooOoOXoOOoOOooOOooOoOXo",
"O+o+OOoX+OOXoXX.O+o+OOoX+OOXoXX.O+o+OOoX+OOXoXX.O+o+OOoX+OOXoXX.",
"++O+oOXXOOoXoXO ++O+oOXXOOoXoXO ++O+oOXXOOoXoXO ++O+oOXXOOoXoXO ",
"OOoOo+OOoXXoooO.OOoOo+OOoXXoooO.OOoOo+OOoXXoooO.OOoOo+OOoXXoooO.",
"+O+OOOXoX.OOXOOX+O+OOOXoX.OOXOOX+O+OOOXoX.OOXOOX+O+OOOXoX.OOXOOX",
"+oOoOooOoXOoX.oX+oOoOooOoXOoX.oX+oOoOooOoXOoX.oX+oOoOooOoXOoX.oX",
"+OooooOoOXoX.oo.+OooooOoOXoX.oo.+OooooOoOXoX.oo.+OooooOoOXoX.oo.",
"+oOO.XooOooO.OO.+oOO.XooOooO.OO.+oOO.XooOooO.OO.+oOO.XooOooO.OO.",
"OoOoXoXXX..ooOoXOoOoXoXXX..ooOoXOoOoXoXXX..ooOoXOoOoXoXXX..ooOoX",
"oXXXXX.XXXXXXX.XoXXXXX.XXXXXXX.XoXXXXX.XXXXXXX.XoXXXXX.XXXXXXX.X",
"++O+++O++O+++OOo++O+++O++O+++OOo++O+++O++O+++OOo++O+++O++O+++OOo",
"+OoOO+oOooOoOoo +OoOO+oOooOoOoo +OoOO+oOooOoOoo +OoOO+oOooOoOoo ",
"Oo+OOoooXoO+OOo.Oo+OOoooXoO+OOo.Oo+OOoooXoO+OOo.Oo+OOoooXoO+OOo.",
"++oOOooOOooOoOX.++oOOooOOooOoOX.++oOOooOOooOoOX.++oOOooOOooOoOX.",
"++OoXoXoOoOoXoXo++OoXoXoOoOoXoXo++OoXoXoOoOoXoXo++OoXoXoOoOoXoXo",
"+o++OOOoXoO+OOoo+o++OOOoXoO+OOoo+o++OOOoXoO+OOoo+o++OOOoXoO+OOoo",
"OOoOOooOOooOoOXoOOoOOooOOooOoOXoOOoOOooOOooOoOXoOOoOOooOOooOoOXo",
"O+o+OOoX+OOXoXX.O+o+OOoX+OOXoXX.O+o+OOoX+OOXoXX.O+o+OOoX+OOXoXX.",
"++O+oOXXOOoXoXO ++O+oOXXOOoXoXO ++O+oOXXOOoXoXO ++O+oOXXOOoXoXO ",
"OOoOo+OOoXXoooO.OOoOo+OOoXXoooO.OOoOo+OOoXXoooO.OOoOo+OOoXXoooO.",
"+O+OOOXoX.OOXOOX+O+OOOXoX.OOXOOX+O+OOOXoX.OOXOOX+O+OOOXoX.OOXOOX",
"+oOoOooOoXOoX.oX+oOoOooOoXOoX.oX+oOoOooOoXOoX.oX+oOoOooOoXOoX.oX",
"+OooooOoOXoX.oo.+OooooOoOXoX.oo.+OooooOoOXoX.oo.+OooooOoOXoX.oo.",
"+oOO.XooOooO.OO.+oOO.XooOooO.OO.+oOO.XooOooO.OO.+oOO.XooOooO.OO.",
"OoOoXoXXX..ooOoXOoOoXoXXX..ooOoXOoOoXoXXX..ooOoXOoOoXoXXX..ooOoX",
"oXXXXX.XXXXXXX.XoXXXXX.XXXXXXX.XoXXXXX.XXXXXXX.XoXXXXX.XXXXXXX.X",
};
