/* XPM */
static char *_2cc4267d3514509913e0c4f9ade89f8RzZHENHZ0TTMUkdx[] = {
/* columns rows colors chars-per-pixel */
"64 64 6 1 ",
"  c #121114",
". c #151317",
"X c #1E1B21",
"o c #312C36",
"O c #3C3947",
"+ c #4E4B54",
/* pixels */
"XooXXX XoooOo..oXooXXX XoooOo..oXooXXX XoooOo..oXooXXX XoooOo..o",
"o  ..  XoooOOo.oo  ..  XoooOOo.oo  ..  XoooOOo.oo  ..  XoooOOo.o",
" ..XX. ooOOOoX.  ..XX. ooOOOoX.  ..XX. ooOOOoX.  ..XX. ooOOOoX. ",
" XooooXooOO+..X. XooooXooOO+..X. XooooXooOO+..X. XooooXooOO+..X.",
".ooOOOXOO++X..X..ooOOOXOO++X..X..ooOOOXOO++X..X..ooOOOXOO++X..X.",
"OO+OoX.oXXXX..X.OO+OoX.oXXXX..X.OO+OoX.oXXXX..X.OO+OoX.oXXXX..X.",
"oOOoXXX.ooXX.X..oOOoXXX.ooXX.X..oOOoXXX.ooXX.X..oOOoXXX.ooXX.X..",
".XXXX  oX.ooX..o.XXXX  oX.ooX..o.XXXX  oX.ooX..o.XXXX  oX.ooX..o",
"..Xoo oOo. ..XXo..Xoo oOo. ..XXo..Xoo oOo. ..XXo..Xoo oOo. ..XXo",
"ooo. .oX. .ooXX ooo. .oX. .ooXX ooo. .oX. .ooXX ooo. .oX. .ooXX ",
"XXXoX ..Xo+OOoo XXXoX ..Xo+OOoo XXXoX ..Xo+OOoo XXXoX ..Xo+OOoo ",
".ooOO. X..O++Oo..ooOO. X..O++Oo..ooOO. X..O++Oo..ooOO. X..O++Oo.",
"ooOOOo.X....oO.XooOOOo.X....oO.XooOOOo.X....oO.XooOOOo.X....oO.X",
"OO++XXX.XXXXX. XOO++XXX.XXXXX. XOO++XXX.XXXXX. XOO++XXX.XXXXX. X",
"OO+o..X  ... oo.OO+o..X  ... oo.OO+o..X  ... oo.OO+o..X  ... oo.",
"oXX...X XXXoXoXXoXX...X XXXoXoXXoXX...X XXXoXoXXoXX...X XXXoXoXX",
"XooXXX XoooOo..oXooXXX XoooOo..oXooXXX XoooOo..oXooXXX XoooOo..o",
"o  ..  XoooOOo.oo  ..  XoooOOo.oo  ..  XoooOOo.oo  ..  XoooOOo.o",
" ..XX. ooOOOoX.  ..XX. ooOOOoX.  ..XX. ooOOOoX.  ..XX. ooOOOoX. ",
" XooooXooOO+..X. XooooXooOO+..X. XooooXooOO+..X. XooooXooOO+..X.",
".ooOOOXOO++X..X..ooOOOXOO++X..X..ooOOOXOO++X..X..ooOOOXOO++X..X.",
"OO+OoX.oXXXX..X.OO+OoX.oXXXX..X.OO+OoX.oXXXX..X.OO+OoX.oXXXX..X.",
"oOOoXXX.ooXX.X..oOOoXXX.ooXX.X..oOOoXXX.ooXX.X..oOOoXXX.ooXX.X..",
".XXXX  oX.ooX..o.XXXX  oX.ooX..o.XXXX  oX.ooX..o.XXXX  oX.ooX..o",
"..Xoo oOo. ..XXo..Xoo oOo. ..XXo..Xoo oOo. ..XXo..Xoo oOo. ..XXo",
"ooo. .oX. .ooXX ooo. .oX. .ooXX ooo. .oX. .ooXX ooo. .oX. .ooXX ",
"XXXoX ..Xo+OOoo XXXoX ..Xo+OOoo XXXoX ..Xo+OOoo XXXoX ..Xo+OOoo ",
".ooOO. X..O++Oo..ooOO. X..O++Oo..ooOO. X..O++Oo..ooOO. X..O++Oo.",
"ooOOOo.X....oO.XooOOOo.X....oO.XooOOOo.X....oO.XooOOOo.X....oO.X",
"OO++XXX.XXXXX. XOO++XXX.XXXXX. XOO++XXX.XXXXX. XOO++XXX.XXXXX. X",
"OO+o..X  ... oo.OO+o..X  ... oo.OO+o..X  ... oo.OO+o..X  ... oo.",
"oXX...X XXXoXoXXoXX...X XXXoXoXXoXX...X XXXoXoXXoXX...X XXXoXoXX",
"XooXXX XoooOo..oXooXXX XoooOo..oXooXXX XoooOo..oXooXXX XoooOo..o",
"o  ..  XoooOOo.oo  ..  XoooOOo.oo  ..  XoooOOo.oo  ..  XoooOOo.o",
" ..XX. ooOOOoX.  ..XX. ooOOOoX.  ..XX. ooOOOoX.  ..XX. ooOOOoX. ",
" XooooXooOO+..X. XooooXooOO+..X. XooooXooOO+..X. XooooXooOO+..X.",
".ooOOOXOO++X..X..ooOOOXOO++X..X..ooOOOXOO++X..X..ooOOOXOO++X..X.",
"OO+OoX.oXXXX..X.OO+OoX.oXXXX..X.OO+OoX.oXXXX..X.OO+OoX.oXXXX..X.",
"oOOoXXX.ooXX.X..oOOoXXX.ooXX.X..oOOoXXX.ooXX.X..oOOoXXX.ooXX.X..",
".XXXX  oX.ooX..o.XXXX  oX.ooX..o.XXXX  oX.ooX..o.XXXX  oX.ooX..o",
"..Xoo oOo. ..XXo..Xoo oOo. ..XXo..Xoo oOo. ..XXo..Xoo oOo. ..XXo",
"ooo. .oX. .ooXX ooo. .oX. .ooXX ooo. .oX. .ooXX ooo. .oX. .ooXX ",
"XXXoX ..Xo+OOoo XXXoX ..Xo+OOoo XXXoX ..Xo+OOoo XXXoX ..Xo+OOoo ",
".ooOO. X..O++Oo..ooOO. X..O++Oo..ooOO. X..O++Oo..ooOO. X..O++Oo.",
"ooOOOo.X....oO.XooOOOo.X....oO.XooOOOo.X....oO.XooOOOo.X....oO.X",
"OO++XXX.XXXXX. XOO++XXX.XXXXX. XOO++XXX.XXXXX. XOO++XXX.XXXXX. X",
"OO+o..X  ... oo.OO+o..X  ... oo.OO+o..X  ... oo.OO+o..X  ... oo.",
"oXX...X XXXoXoXXoXX...X XXXoXoXXoXX...X XXXoXoXXoXX...X XXXoXoXX",
"XooXXX XoooOo..oXooXXX XoooOo..oXooXXX XoooOo..oXooXXX XoooOo..o",
"o  ..  XoooOOo.oo  ..  XoooOOo.oo  ..  XoooOOo.oo  ..  XoooOOo.o",
" ..XX. ooOOOoX.  ..XX. ooOOOoX.  ..XX. ooOOOoX.  ..XX. ooOOOoX. ",
" XooooXooOO+..X. XooooXooOO+..X. XooooXooOO+..X. XooooXooOO+..X.",
".ooOOOXOO++X..X..ooOOOXOO++X..X..ooOOOXOO++X..X..ooOOOXOO++X..X.",
"OO+OoX.oXXXX..X.OO+OoX.oXXXX..X.OO+OoX.oXXXX..X.OO+OoX.oXXXX..X.",
"oOOoXXX.ooXX.X..oOOoXXX.ooXX.X..oOOoXXX.ooXX.X..oOOoXXX.ooXX.X..",
".XXXX  oX.ooX..o.XXXX  oX.ooX..o.XXXX  oX.ooX..o.XXXX  oX.ooX..o",
"..Xoo oOo. ..XXo..Xoo oOo. ..XXo..Xoo oOo. ..XXo..Xoo oOo. ..XXo",
"ooo. .oX. .ooXX ooo. .oX. .ooXX ooo. .oX. .ooXX ooo. .oX. .ooXX ",
"XXXoX ..Xo+OOoo XXXoX ..Xo+OOoo XXXoX ..Xo+OOoo XXXoX ..Xo+OOoo ",
".ooOO. X..O++Oo..ooOO. X..O++Oo..ooOO. X..O++Oo..ooOO. X..O++Oo.",
"ooOOOo.X....oO.XooOOOo.X....oO.XooOOOo.X....oO.XooOOOo.X....oO.X",
"OO++XXX.XXXXX. XOO++XXX.XXXXX. XOO++XXX.XXXXX. XOO++XXX.XXXXX. X",
"OO+o..X  ... oo.OO+o..X  ... oo.OO+o..X  ... oo.OO+o..X  ... oo.",
"oXX...X XXXoXoXXoXX...X XXXoXoXXoXX...X XXXoXoXXoXX...X XXXoXoXX"
};
