/* XPM */
static char *cf17c96b7d5344a081fe752631057cf5Wx6p4Z1tWWF6smiC[] = {
/* columns rows colors chars-per-pixel */
"64 64 6 1 ",
"  c #121114",
". c #151317",
"X c #1E1B21",
"o c #312C36",
"O c #3C3947",
"+ c #4E4B54",
/* pixels */
"o++ ++O++X++OOo o++ ++O++X++OOo o++ ++O++X++OOo o++ ++O++X++OOo ",
"oOo o+OOoO.oooO oOo o+OOoO.oooO oOo o+OOoO.oooO oOo o+OOoO.oooO ",
"oO+X OXoXOO.o.O oO+X OXoXOO.o.O oO+X OXoXOO.o.O oO+X OXoXOO.o.O ",
"O XoO oOOoO ..o O XoO oOOoO ..o O XoO oOOoO ..o O XoO oOOoO ..o ",
" OooooOooo oXXo  OooooOooo oXXo  OooooOooo oXXo  OooooOooo oXXo ",
"XoOOoXooX XXX.X XoOOoXooX XXX.X XoOOoXooX XXX.X XoOOoXooX XXX.X ",
"XXOo oXXX .o..X XXOo oXXX .o..X XXOo oXXX .o..X XXOo oXXX .o..X ",
"..  ..    ........  ..    ........  ..    ........  ..    ......",
"+O+ oXX .Xo ++O++O+ oXX .Xo ++O++O+ oXX .Xo ++O++O+ oXX .Xo ++O+",
"ooO oXX Xo +O+OOooO oXX Xo +O+OOooO oXX Xo +O+OOooO oXX Xo +O+OO",
"XoO+.oX  X++OOOoXoO+.oX  X++OOOoXoO+.oX  X++OOOoXoO+.oX  X++OOOo",
"OooO.oo ++oOO oOOooO.oo ++oOO oOOooO.oo ++oOO oOOooO.oo ++oOO oO",
"O Ooo   O+Oo oX O Ooo   O+Oo oX O Ooo   O+Oo oX O Ooo   O+Oo oX ",
"o oXXoo OOoX.X.Xo oXXoo OOoX.X.Xo oXXoo OOoX.X.Xo oXXoo OOoX.X.X",
"X..X.X. ooXX....X..X.X. ooXX....X..X.X. ooXX....X..X.X. ooXX....",
"  ...     . ..    ...     . ..    ...     . ..    ...     . ..  ",
"o++ ++O++X++OOo o++ ++O++X++OOo o++ ++O++X++OOo o++ ++O++X++OOo ",
"oOo o+OOoO.oooO oOo o+OOoO.oooO oOo o+OOoO.oooO oOo o+OOoO.oooO ",
"oO+X OXoXOO.o.O oO+X OXoXOO.o.O oO+X OXoXOO.o.O oO+X OXoXOO.o.O ",
"O XoO oOOoO ..o O XoO oOOoO ..o O XoO oOOoO ..o O XoO oOOoO ..o ",
" OooooOooo oXXo  OooooOooo oXXo  OooooOooo oXXo  OooooOooo oXXo ",
"XoOOoXooX XXX.X XoOOoXooX XXX.X XoOOoXooX XXX.X XoOOoXooX XXX.X ",
"XXOo oXXX .o..X XXOo oXXX .o..X XXOo oXXX .o..X XXOo oXXX .o..X ",
"..  ..    ........  ..    ........  ..    ........  ..    ......",
"+O+ oXX .Xo ++O++O+ oXX .Xo ++O++O+ oXX .Xo ++O++O+ oXX .Xo ++O+",
"ooO oXX Xo +O+OOooO oXX Xo +O+OOooO oXX Xo +O+OOooO oXX Xo +O+OO",
"XoO+.oX  X++OOOoXoO+.oX  X++OOOoXoO+.oX  X++OOOoXoO+.oX  X++OOOo",
"OooO.oo ++oOO oOOooO.oo ++oOO oOOooO.oo ++oOO oOOooO.oo ++oOO oO",
"O Ooo   O+Oo oX O Ooo   O+Oo oX O Ooo   O+Oo oX O Ooo   O+Oo oX ",
"o oXXoo OOoX.X.Xo oXXoo OOoX.X.Xo oXXoo OOoX.X.Xo oXXoo OOoX.X.X",
"X..X.X. ooXX....X..X.X. ooXX....X..X.X. ooXX....X..X.X. ooXX....",
"  ...     . ..    ...     . ..    ...     . ..    ...     . ..  ",
"o++ ++O++X++OOo o++ ++O++X++OOo o++ ++O++X++OOo o++ ++O++X++OOo ",
"oOo o+OOoO.oooO oOo o+OOoO.oooO oOo o+OOoO.oooO oOo o+OOoO.oooO ",
"oO+X OXoXOO.o.O oO+X OXoXOO.o.O oO+X OXoXOO.o.O oO+X OXoXOO.o.O ",
"O XoO oOOoO ..o O XoO oOOoO ..o O XoO oOOoO ..o O XoO oOOoO ..o ",
" OooooOooo oXXo  OooooOooo oXXo  OooooOooo oXXo  OooooOooo oXXo ",
"XoOOoXooX XXX.X XoOOoXooX XXX.X XoOOoXooX XXX.X XoOOoXooX XXX.X ",
"XXOo oXXX .o..X XXOo oXXX .o..X XXOo oXXX .o..X XXOo oXXX .o..X ",
"..  ..    ........  ..    ........  ..    ........  ..    ......",
"+O+ oXX .Xo ++O++O+ oXX .Xo ++O++O+ oXX .Xo ++O++O+ oXX .Xo ++O+",
"ooO oXX Xo +O+OOooO oXX Xo +O+OOooO oXX Xo +O+OOooO oXX Xo +O+OO",
"XoO+.oX  X++OOOoXoO+.oX  X++OOOoXoO+.oX  X++OOOoXoO+.oX  X++OOOo",
"OooO.oo ++oOO oOOooO.oo ++oOO oOOooO.oo ++oOO oOOooO.oo ++oOO oO",
"O Ooo   O+Oo oX O Ooo   O+Oo oX O Ooo   O+Oo oX O Ooo   O+Oo oX ",
"o oXXoo OOoX.X.Xo oXXoo OOoX.X.Xo oXXoo OOoX.X.Xo oXXoo OOoX.X.X",
"X..X.X. ooXX....X..X.X. ooXX....X..X.X. ooXX....X..X.X. ooXX....",
"  ...     . ..    ...     . ..    ...     . ..    ...     . ..  ",
"o++ ++O++X++OOo o++ ++O++X++OOo o++ ++O++X++OOo o++ ++O++X++OOo ",
"oOo o+OOoO.oooO oOo o+OOoO.oooO oOo o+OOoO.oooO oOo o+OOoO.oooO ",
"oO+X OXoXOO.o.O oO+X OXoXOO.o.O oO+X OXoXOO.o.O oO+X OXoXOO.o.O ",
"O XoO oOOoO ..o O XoO oOOoO ..o O XoO oOOoO ..o O XoO oOOoO ..o ",
" OooooOooo oXXo  OooooOooo oXXo  OooooOooo oXXo  OooooOooo oXXo ",
"XoOOoXooX XXX.X XoOOoXooX XXX.X XoOOoXooX XXX.X XoOOoXooX XXX.X ",
"XXOo oXXX .o..X XXOo oXXX .o..X XXOo oXXX .o..X XXOo oXXX .o..X ",
"..  ..    ........  ..    ........  ..    ........  ..    ......",
"+O+ oXX .Xo ++O++O+ oXX .Xo ++O++O+ oXX .Xo ++O++O+ oXX .Xo ++O+",
"ooO oXX Xo +O+OOooO oXX Xo +O+OOooO oXX Xo +O+OOooO oXX Xo +O+OO",
"XoO+.oX  X++OOOoXoO+.oX  X++OOOoXoO+.oX  X++OOOoXoO+.oX  X++OOOo",
"OooO.oo ++oOO oOOooO.oo ++oOO oOOooO.oo ++oOO oOOooO.oo ++oOO oO",
"O Ooo   O+Oo oX O Ooo   O+Oo oX O Ooo   O+Oo oX O Ooo   O+Oo oX ",
"o oXXoo OOoX.X.Xo oXXoo OOoX.X.Xo oXXoo OOoX.X.Xo oXXoo OOoX.X.X",
"X..X.X. ooXX....X..X.X. ooXX....X..X.X. ooXX....X..X.X. ooXX....",
"  ...     . ..    ...     . ..    ...     . ..    ...     . ..  "
};
