/* XPM */
static char *_6bd4ec3957d4567db8f376e745a0b10XJt5V5lAZ5WBlTnH[] = {
/* columns rows colors chars-per-pixel */
"64 64 10 1 ",
"  c #121114",
". c #151317",
"X c #1E1B21",
"o c #312C36",
"O c #451B03",
"+ c #7E450E",
"@ c #3C3947",
"# c #4E4B54",
"$ c #DA910F",
"% c #FCEE4B",
/* pixels */
"XooXXX Xooo@oOOoXooXXX Xooo@oOOoXooXXX Xooo@oOOoXooXXX Xooo@oOOo",
"o $+O  Xooo@@oOoo $+O  Xooo@@oOoo $+O  Xooo@@oOoo $+O  Xooo@@oOo",
" $.XX. oo$%@oX.  $.XX. oo$%@oX.  $.XX. oo$%@oX.  $.XX. oo$%@oX. ",
"+XooooXoo@+%..X.+XooooXoo@+%..X.+XooooXoo@+%..X.+XooooXoo@+%..X.",
".oo@@@X@@##X$.XO.oo@@@X@@##X$.XO.oo@@@X@@##X$.XO.oo@@@X@@##X$.XO",
"@@#@oX.oXXXX+.XO@@#@oX.oXXXX+.XO@@#@oX.oXXXX+.XO@@#@oX.oXXXX+.XO",
"o@@oXXXOooXXOX..o@@oXXXOooXXOX..o@@oXXXOooXXOX..o@@oXXXOooXXOX..",
".XXXXO+oX.ooX..o.XXXXO+oX.ooX..o.XXXXO+oX.ooX..o.XXXXO+oX.ooX..o",
"..Xoo o@o.$+OXXo..Xoo o@o.$+OXXo..Xoo o@o.$+OXXo..Xoo o@o.$+OXXo",
"ooo. .oX.O.ooXXOooo. .oX.O.ooXXOooo. .oX.O.ooXXOooo. .oX.O.ooXXO",
"XXXo+$..Xo#@@oo+XXXo+$..Xo#@@oo+XXXo+$..Xo#@@oo+XXXo+$..Xo#@@oo+",
".oo@@.%X..@##@o$.oo@@.%X..@##@o$.oo@@.%X..@##@o$.oo@@.%X..@##@o$",
"oo@@@o$X....o@+Xoo@@@o$X....o@+Xoo@@@o$X....o@+Xoo@@@o$X....o@+X",
"@@##XXX+XXXXXOOX@@##XXX+XXXXXOOX@@##XXX+XXXXXOOX@@##XXX+XXXXXOOX",
"@@#o..XO ... oo.@@#o..XO ... oo.@@#o..XO ... oo.@@#o..XO ... oo.",
"oXX...X XXXoOoXXoXX...X XXXoOoXXoXX...X XXXoOoXXoXX...X XXXoOoXX",
"XooXXX Xooo@oOOoXooXXX Xooo@oOOoXooXXX Xooo@oOOoXooXXX Xooo@oOOo",
"o $+O  Xooo@@oOoo $+O  Xooo@@oOoo $+O  Xooo@@oOoo $+O  Xooo@@oOo",
" $.XX. oo$%@oX.  $.XX. oo$%@oX.  $.XX. oo$%@oX.  $.XX. oo$%@oX. ",
"+XooooXoo@+%..X.+XooooXoo@+%..X.+XooooXoo@+%..X.+XooooXoo@+%..X.",
".oo@@@X@@##X$.XO.oo@@@X@@##X$.XO.oo@@@X@@##X$.XO.oo@@@X@@##X$.XO",
"@@#@oX.oXXXX+.XO@@#@oX.oXXXX+.XO@@#@oX.oXXXX+.XO@@#@oX.oXXXX+.XO",
"o@@oXXXOooXXOX..o@@oXXXOooXXOX..o@@oXXXOooXXOX..o@@oXXXOooXXOX..",
".XXXXO+oX.ooX..o.XXXXO+oX.ooX..o.XXXXO+oX.ooX..o.XXXXO+oX.ooX..o",
"..Xoo o@o.$+OXXo..Xoo o@o.$+OXXo..Xoo o@o.$+OXXo..Xoo o@o.$+OXXo",
"ooo. .oX.O.ooXXOooo. .oX.O.ooXXOooo. .oX.O.ooXXOooo. .oX.O.ooXXO",
"XXXo+$..Xo#@@oo+XXXo+$..Xo#@@oo+XXXo+$..Xo#@@oo+XXXo+$..Xo#@@oo+",
".oo@@.%X..@##@o$.oo@@.%X..@##@o$.oo@@.%X..@##@o$.oo@@.%X..@##@o$",
"oo@@@o$X....o@+Xoo@@@o$X....o@+Xoo@@@o$X....o@+Xoo@@@o$X....o@+X",
"@@##XXX+XXXXXOOX@@##XXX+XXXXXOOX@@##XXX+XXXXXOOX@@##XXX+XXXXXOOX",
"@@#o..XO ... oo.@@#o..XO ... oo.@@#o..XO ... oo.@@#o..XO ... oo.",
"oXX...X XXXoOoXXoXX...X XXXoOoXXoXX...X XXXoOoXXoXX...X XXXoOoXX",
"XooXXX Xooo@oOOoXooXXX Xooo@oOOoXooXXX Xooo@oOOoXooXXX Xooo@oOOo",
"o $+O  Xooo@@oOoo $+O  Xooo@@oOoo $+O  Xooo@@oOoo $+O  Xooo@@oOo",
" $.XX. oo$%@oX.  $.XX. oo$%@oX.  $.XX. oo$%@oX.  $.XX. oo$%@oX. ",
"+XooooXoo@+%..X.+XooooXoo@+%..X.+XooooXoo@+%..X.+XooooXoo@+%..X.",
".oo@@@X@@##X$.XO.oo@@@X@@##X$.XO.oo@@@X@@##X$.XO.oo@@@X@@##X$.XO",
"@@#@oX.oXXXX+.XO@@#@oX.oXXXX+.XO@@#@oX.oXXXX+.XO@@#@oX.oXXXX+.XO",
"o@@oXXXOooXXOX..o@@oXXXOooXXOX..o@@oXXXOooXXOX..o@@oXXXOooXXOX..",
".XXXXO+oX.ooX..o.XXXXO+oX.ooX..o.XXXXO+oX.ooX..o.XXXXO+oX.ooX..o",
"..Xoo o@o.$+OXXo..Xoo o@o.$+OXXo..Xoo o@o.$+OXXo..Xoo o@o.$+OXXo",
"ooo. .oX.O.ooXXOooo. .oX.O.ooXXOooo. .oX.O.ooXXOooo. .oX.O.ooXXO",
"XXXo+$..Xo#@@oo+XXXo+$..Xo#@@oo+XXXo+$..Xo#@@oo+XXXo+$..Xo#@@oo+",
".oo@@.%X..@##@o$.oo@@.%X..@##@o$.oo@@.%X..@##@o$.oo@@.%X..@##@o$",
"oo@@@o$X....o@+Xoo@@@o$X....o@+Xoo@@@o$X....o@+Xoo@@@o$X....o@+X",
"@@##XXX+XXXXXOOX@@##XXX+XXXXXOOX@@##XXX+XXXXXOOX@@##XXX+XXXXXOOX",
"@@#o..XO ... oo.@@#o..XO ... oo.@@#o..XO ... oo.@@#o..XO ... oo.",
"oXX...X XXXoOoXXoXX...X XXXoOoXXoXX...X XXXoOoXXoXX...X XXXoOoXX",
"XooXXX Xooo@oOOoXooXXX Xooo@oOOoXooXXX Xooo@oOOoXooXXX Xooo@oOOo",
"o $+O  Xooo@@oOoo $+O  Xooo@@oOoo $+O  Xooo@@oOoo $+O  Xooo@@oOo",
" $.XX. oo$%@oX.  $.XX. oo$%@oX.  $.XX. oo$%@oX.  $.XX. oo$%@oX. ",
"+XooooXoo@+%..X.+XooooXoo@+%..X.+XooooXoo@+%..X.+XooooXoo@+%..X.",
".oo@@@X@@##X$.XO.oo@@@X@@##X$.XO.oo@@@X@@##X$.XO.oo@@@X@@##X$.XO",
"@@#@oX.oXXXX+.XO@@#@oX.oXXXX+.XO@@#@oX.oXXXX+.XO@@#@oX.oXXXX+.XO",
"o@@oXXXOooXXOX..o@@oXXXOooXXOX..o@@oXXXOooXXOX..o@@oXXXOooXXOX..",
".XXXXO+oX.ooX..o.XXXXO+oX.ooX..o.XXXXO+oX.ooX..o.XXXXO+oX.ooX..o",
"..Xoo o@o.$+OXXo..Xoo o@o.$+OXXo..Xoo o@o.$+OXXo..Xoo o@o.$+OXXo",
"ooo. .oX.O.ooXXOooo. .oX.O.ooXXOooo. .oX.O.ooXXOooo. .oX.O.ooXXO",
"XXXo+$..Xo#@@oo+XXXo+$..Xo#@@oo+XXXo+$..Xo#@@oo+XXXo+$..Xo#@@oo+",
".oo@@.%X..@##@o$.oo@@.%X..@##@o$.oo@@.%X..@##@o$.oo@@.%X..@##@o$",
"oo@@@o$X....o@+Xoo@@@o$X....o@+Xoo@@@o$X....o@+Xoo@@@o$X....o@+X",
"@@##XXX+XXXXXOOX@@##XXX+XXXXXOOX@@##XXX+XXXXXOOX@@##XXX+XXXXXOOX",
"@@#o..XO ... oo.@@#o..XO ... oo.@@#o..XO ... oo.@@#o..XO ... oo.",
"oXX...X XXXoOoXXoXX...X XXXoOoXXoXX...X XXXoOoXXoXX...X XXXoOoXX"
};
