/* XPM */
static char *_91660f785b24cccd0927abad7293e8a0IfWvDLSBzmWKG4a[] = {
/* columns rows colors chars-per-pixel */
"64 64 5 1 ",
"  c #121114",
". c #151317",
"X c #1E1B21",
"o c #312C36",
"O c #3C3947",
/* pixels */
"XoOOoo.XoOoXXo  XoOOoo.XoOoXXo  XoOOoo.XoOoXXo  XoOOoo.XoOoXXo  ",
" OOooX...XoX. oO OOooX...XoX. oO OOooX...XoX. oO OOooX...XoX. oO",
" OoOXXoOo...oOXo OoOXXoOo...oOXo OoOXXoOo...oOXo OoOXXoOo...oOXo",
".XoX ooOOX.OOoOX.XoX ooOOX.OOoOX.XoX ooOOX.OOoOX.XoX ooOOX.OOoOX",
"XX   XOOX  oOoo.XX   XOOX  oOoo.XX   XOOX  oOoo.XX   XOOX  oOoo.",
"XXXOX .o    ooX.XXXOX .o    ooX.XXXOX .o    ooX.XXXOX .o    ooX.",
".XOOoOo .X.  X...XOOoOo .X.  X...XOOoOo .X.  X...XOOoOo .X.  X..",
".oOoOoo.OOXX .oo.oOoOoo.OOXX .oo.oOoOoo.OOXX .oo.oOoOoo.OOXX .oo",
"XXoOX XOoooo XoOXXoOX XOoooo XoOXXoOX XOoooo XoOXXoOX XOoooo XoO",
"XX ..XXOOooX  ..XX ..XXOOooX  ..XX ..XXOOooX  ..XX ..XXOOooX  ..",
"O  XoOoXOOX. .XoO  XoOoXOOX. .XoO  XoOoXOOX. .XoO  XoOoXOOX. .Xo",
"OoXooOOOX  .oOXOOoXooOOOX  .oOXOOoXooOOOX  .oOXOOoXooOOOX  .oOXO",
"O oOO XoX. XOOOXO oOO XoX. XOOOXO oOO XoX. XOOOXO oOO XoX. XOOOX",
".XOOoX.X.. XoOoX.XOOoX.X.. XoOoX.XOOoX.X.. XoOoX.XOOoX.X.. XoOoX",
".ooOXoXoOoX XoXX.ooOXoXoOoX XoXX.ooOXoXoOoX XoXX.ooOXoXoOoX XoXX",
"oX..ooXoOOO  Oo oX..ooXoOOO  Oo oX..ooXoOOO  Oo oX..ooXoOOO  Oo ",
"XoOOoo.XoOoXXo  XoOOoo.XoOoXXo  XoOOoo.XoOoXXo  XoOOoo.XoOoXXo  ",
" OOooX...XoX. oO OOooX...XoX. oO OOooX...XoX. oO OOooX...XoX. oO",
" OoOXXoOo...oOXo OoOXXoOo...oOXo OoOXXoOo...oOXo OoOXXoOo...oOXo",
".XoX ooOOX.OOoOX.XoX ooOOX.OOoOX.XoX ooOOX.OOoOX.XoX ooOOX.OOoOX",
"XX   XOOX  oOoo.XX   XOOX  oOoo.XX   XOOX  oOoo.XX   XOOX  oOoo.",
"XXXOX .o    ooX.XXXOX .o    ooX.XXXOX .o    ooX.XXXOX .o    ooX.",
".XOOoOo .X.  X...XOOoOo .X.  X...XOOoOo .X.  X...XOOoOo .X.  X..",
".oOoOoo.OOXX .oo.oOoOoo.OOXX .oo.oOoOoo.OOXX .oo.oOoOoo.OOXX .oo",
"XXoOX XOoooo XoOXXoOX XOoooo XoOXXoOX XOoooo XoOXXoOX XOoooo XoO",
"XX ..XXOOooX  ..XX ..XXOOooX  ..XX ..XXOOooX  ..XX ..XXOOooX  ..",
"O  XoOoXOOX. .XoO  XoOoXOOX. .XoO  XoOoXOOX. .XoO  XoOoXOOX. .Xo",
"OoXooOOOX  .oOXOOoXooOOOX  .oOXOOoXooOOOX  .oOXOOoXooOOOX  .oOXO",
"O oOO XoX. XOOOXO oOO XoX. XOOOXO oOO XoX. XOOOXO oOO XoX. XOOOX",
".XOOoX.X.. XoOoX.XOOoX.X.. XoOoX.XOOoX.X.. XoOoX.XOOoX.X.. XoOoX",
".ooOXoXoOoX XoXX.ooOXoXoOoX XoXX.ooOXoXoOoX XoXX.ooOXoXoOoX XoXX",
"oX..ooXoOOO  Oo oX..ooXoOOO  Oo oX..ooXoOOO  Oo oX..ooXoOOO  Oo ",
"XoOOoo.XoOoXXo  XoOOoo.XoOoXXo  XoOOoo.XoOoXXo  XoOOoo.XoOoXXo  ",
" OOooX...XoX. oO OOooX...XoX. oO OOooX...XoX. oO OOooX...XoX. oO",
" OoOXXoOo...oOXo OoOXXoOo...oOXo OoOXXoOo...oOXo OoOXXoOo...oOXo",
".XoX ooOOX.OOoOX.XoX ooOOX.OOoOX.XoX ooOOX.OOoOX.XoX ooOOX.OOoOX",
"XX   XOOX  oOoo.XX   XOOX  oOoo.XX   XOOX  oOoo.XX   XOOX  oOoo.",
"XXXOX .o    ooX.XXXOX .o    ooX.XXXOX .o    ooX.XXXOX .o    ooX.",
".XOOoOo .X.  X...XOOoOo .X.  X...XOOoOo .X.  X...XOOoOo .X.  X..",
".oOoOoo.OOXX .oo.oOoOoo.OOXX .oo.oOoOoo.OOXX .oo.oOoOoo.OOXX .oo",
"XXoOX XOoooo XoOXXoOX XOoooo XoOXXoOX XOoooo XoOXXoOX XOoooo XoO",
"XX ..XXOOooX  ..XX ..XXOOooX  ..XX ..XXOOooX  ..XX ..XXOOooX  ..",
"O  XoOoXOOX. .XoO  XoOoXOOX. .XoO  XoOoXOOX. .XoO  XoOoXOOX. .Xo",
"OoXooOOOX  .oOXOOoXooOOOX  .oOXOOoXooOOOX  .oOXOOoXooOOOX  .oOXO",
"O oOO XoX. XOOOXO oOO XoX. XOOOXO oOO XoX. XOOOXO oOO XoX. XOOOX",
".XOOoX.X.. XoOoX.XOOoX.X.. XoOoX.XOOoX.X.. XoOoX.XOOoX.X.. XoOoX",
".ooOXoXoOoX XoXX.ooOXoXoOoX XoXX.ooOXoXoOoX XoXX.ooOXoXoOoX XoXX",
"oX..ooXoOOO  Oo oX..ooXoOOO  Oo oX..ooXoOOO  Oo oX..ooXoOOO  Oo ",
"XoOOoo.XoOoXXo  XoOOoo.XoOoXXo  XoOOoo.XoOoXXo  XoOOoo.XoOoXXo  ",
" OOooX...XoX. oO OOooX...XoX. oO OOooX...XoX. oO OOooX...XoX. oO",
" OoOXXoOo...oOXo OoOXXoOo...oOXo OoOXXoOo...oOXo OoOXXoOo...oOXo",
".XoX ooOOX.OOoOX.XoX ooOOX.OOoOX.XoX ooOOX.OOoOX.XoX ooOOX.OOoOX",
"XX   XOOX  oOoo.XX   XOOX  oOoo.XX   XOOX  oOoo.XX   XOOX  oOoo.",
"XXXOX .o    ooX.XXXOX .o    ooX.XXXOX .o    ooX.XXXOX .o    ooX.",
".XOOoOo .X.  X...XOOoOo .X.  X...XOOoOo .X.  X...XOOoOo .X.  X..",
".oOoOoo.OOXX .oo.oOoOoo.OOXX .oo.oOoOoo.OOXX .oo.oOoOoo.OOXX .oo",
"XXoOX XOoooo XoOXXoOX XOoooo XoOXXoOX XOoooo XoOXXoOX XOoooo XoO",
"XX ..XXOOooX  ..XX ..XXOOooX  ..XX ..XXOOooX  ..XX ..XXOOooX  ..",
"O  XoOoXOOX. .XoO  XoOoXOOX. .XoO  XoOoXOOX. .XoO  XoOoXOOX. .Xo",
"OoXooOOOX  .oOXOOoXooOOOX  .oOXOOoXooOOOX  .oOXOOoXooOOOX  .oOXO",
"O oOO XoX. XOOOXO oOO XoX. XOOOXO oOO XoX. XOOOXO oOO XoX. XOOOX",
".XOOoX.X.. XoOoX.XOOoX.X.. XoOoX.XOOoX.X.. XoOoX.XOOoX.X.. XoOoX",
".ooOXoXoOoX XoXX.ooOXoXoOoX XoXX.ooOXoXoOoX XoXX.ooOXoXoOoX XoXX",
"oX..ooXoOOO  Oo oX..ooXoOOO  Oo oX..ooXoOOO  Oo oX..ooXoOOO  Oo "
};
